<svg width="170" height="188" viewBox="0 0 170 188" fill="none" xmlns="http://www.w3.org/2000/svg">
<rect width="170" height="188" rx="20" fill="#F4F4F4"/>
<path d="M40.5625 113.207C40.5625 111.592 41.4068 110.111 42.893 109.474C47.3614 107.553 58.4264 103.875 77.5938 103.875C96.7611 103.875 107.826 107.558 112.295 109.474C113.776 110.111 114.625 111.597 114.625 113.207C114.625 116.844 113.909 120.446 112.517 123.807C111.124 127.168 109.084 130.221 106.512 132.793C103.94 135.365 100.886 137.406 97.5257 138.798C94.1651 140.19 90.5632 140.906 86.9256 140.906H68.2619C60.9155 140.906 53.8701 137.988 48.6755 132.793C43.4808 127.599 40.5625 120.553 40.5625 113.207Z" fill="#E1CEFF"/>
<path d="M80.0625 79.1875C90.9701 79.1875 99.8125 70.3451 99.8125 59.4375C99.8125 48.5299 90.9701 39.6875 80.0625 39.6875C69.1549 39.6875 60.3125 48.5299 60.3125 59.4375C60.3125 70.3451 69.1549 79.1875 80.0625 79.1875Z" fill="#E1CEFF"/>
<path fill-rule="evenodd" clip-rule="evenodd" d="M104.75 64.375C104.75 69.613 102.669 74.6365 98.9654 78.3404C95.2615 82.0442 90.238 84.125 85 84.125C79.762 84.125 74.7385 82.0442 71.0346 78.3404C67.3308 74.6365 65.25 69.613 65.25 64.375C65.25 59.137 67.3308 54.1135 71.0346 50.4096C74.7385 46.7058 79.762 44.625 85 44.625C90.238 44.625 95.2615 46.7058 98.9654 50.4096C102.669 54.1135 104.75 59.137 104.75 64.375ZM109.688 64.375C109.688 70.9225 107.087 77.2019 102.457 81.8317C97.8269 86.4615 91.5475 89.0625 85 89.0625C78.4525 89.0625 72.1731 86.4615 67.5433 81.8317C62.9135 77.2019 60.3125 70.9225 60.3125 64.375C60.3125 57.8275 62.9135 51.5481 67.5433 46.9183C72.1731 42.2885 78.4525 39.6875 85 39.6875C91.5475 39.6875 97.8269 42.2885 102.457 46.9183C107.087 51.5481 109.688 57.8275 109.688 64.375ZM45.5 110.136C45.5 110.121 45.5099 110.106 45.5247 110.101C50.4128 108.037 62.9886 103.875 85 103.875C107.011 103.875 119.587 108.037 124.475 110.096C124.483 110.099 124.49 110.105 124.494 110.112C124.499 110.119 124.501 110.127 124.5 110.136C124.5 113.852 123.768 117.533 122.346 120.966C120.923 124.4 118.839 127.52 116.211 130.148C113.583 132.776 110.463 134.861 107.029 136.283C103.595 137.705 99.9149 138.438 96.1982 138.438H73.8018C66.2957 138.438 59.097 135.456 53.7894 130.148C48.4818 124.84 45.5 117.642 45.5 110.136ZM40.5625 110.136C40.5625 108.2 41.5796 106.423 43.3571 105.657C48.7192 103.357 62.0011 98.9375 85 98.9375C107.999 98.9375 121.281 103.352 126.643 105.653C128.42 106.423 129.438 108.2 129.438 110.136C129.438 118.951 125.936 127.406 119.702 133.639C113.468 139.873 105.014 143.375 96.1982 143.375H73.8018C64.9862 143.375 56.5316 139.873 50.298 133.639C44.0645 127.406 40.5625 118.951 40.5625 110.136Z" fill="#5E5E5E"/>
</svg>
