<svg width="99" height="32" viewBox="0 0 99 32" fill="none" xmlns="http://www.w3.org/2000/svg">
<path d="M16.4364 5.95801H21.1695L13.9611 18.6018V24.9102H9.50006V18.6018L2.29169 5.95801H7.02473L11.7306 14.5677L16.4364 5.95801Z" />
<path d="M26.9147 25.208C24.8474 25.208 23.1337 24.5672 21.7736 23.2857C20.4136 21.9861 19.7335 20.2985 19.7335 18.2228C19.7335 16.1651 20.4045 14.4865 21.7464 13.1869C23.1065 11.8873 24.7839 11.2375 26.7787 11.2375C28.7372 11.2375 30.3602 11.8512 31.6477 13.0786C32.9353 14.2879 33.579 15.8853 33.579 17.8708C33.579 18.2318 33.5518 18.683 33.4974 19.2245H24.1129C24.258 20.0729 24.5754 20.7136 25.065 21.1468C25.5727 21.58 26.1802 21.7966 26.8875 21.7966C27.4859 21.7966 28.0027 21.6522 28.438 21.3634C28.8732 21.0566 29.1452 20.6505 29.254 20.1451L33.035 21.1468C32.6723 22.4825 31.9288 23.4933 30.8045 24.1792C29.6983 24.8651 28.4017 25.208 26.9147 25.208ZM24.2489 16.5171H29.4172C29.3084 16.0297 29.0183 15.6056 28.5468 15.2446C28.0934 14.8655 27.5131 14.676 26.8059 14.676C25.5365 14.676 24.6842 15.2897 24.2489 16.5171Z" />
<path d="M48.0417 21.4446C48.1867 21.4446 48.3953 21.3995 48.6673 21.3093V24.9643C48.2865 25.1087 47.7515 25.1809 47.0624 25.1809C45.3215 25.1809 44.1428 24.6936 43.5262 23.7189C42.5832 24.6936 41.2322 25.1809 39.4732 25.1809C38.095 25.1809 36.9707 24.8199 36.1003 24.098C35.2479 23.376 34.8218 22.3832 34.8218 21.1198C34.8218 19.9465 35.2117 18.9989 35.9914 18.2769C36.7712 17.5549 37.823 17.1308 39.1468 17.0044L43.0366 16.6525V16.3817C43.0366 15.8583 42.8553 15.4431 42.4926 15.1363C42.1299 14.8114 41.6675 14.6489 41.1053 14.6489C40.0898 14.6489 39.4823 15.1363 39.2828 16.111L35.393 15.5695C35.6288 14.0533 36.2997 12.9523 37.4059 12.2664C38.5302 11.5805 39.8722 11.2375 41.4317 11.2375C43.2814 11.2375 44.7322 11.6798 45.7839 12.5642C46.8539 13.4306 47.3888 14.667 47.3888 16.2734V20.7136C47.3888 21.201 47.6064 21.4446 48.0417 21.4446ZM43.0366 19.6577V19.3599L40.4797 19.6577C40.0445 19.7119 39.6999 19.8563 39.446 20.0909C39.1921 20.3075 39.0652 20.5692 39.0652 20.8761C39.0652 21.2371 39.2193 21.5168 39.5276 21.7154C39.854 21.9139 40.2621 22.0042 40.7517 21.9861C41.4045 21.95 41.9485 21.7334 42.3838 21.3364C42.819 20.9393 43.0366 20.3797 43.0366 19.6577Z" />
<path d="M58.4545 11.2375C59.9778 11.2375 61.22 11.6798 62.1811 12.5642C63.1603 13.4486 63.6499 14.685 63.6499 16.2734V24.9102H59.2977V17.6001C59.2977 16.7878 59.0982 16.1832 58.6993 15.7861C58.3003 15.3709 57.7563 15.1634 57.0672 15.1634C56.3781 15.1634 55.825 15.3799 55.4079 15.8131C55.009 16.2463 54.8095 16.8781 54.8095 17.7084V24.9102H50.4573V5.95801H54.8095V12.6183C55.6981 11.6978 56.9131 11.2375 58.4545 11.2375Z" />
<path d="M74.9419 11.5083H79.2941V24.9102H74.9419V23.8001C74.0533 24.7207 72.8383 25.1809 71.2969 25.1809C69.8462 25.1809 68.6131 24.7207 67.5975 23.8001C66.6002 22.8615 66.1015 21.5529 66.1015 19.8743V11.5083H70.4537V18.9267C70.4537 19.7029 70.6532 20.2895 71.0521 20.6866C71.4511 21.0656 71.9951 21.2551 72.6842 21.2551C73.3733 21.2551 73.9173 21.0385 74.3163 20.6053C74.7334 20.1721 74.9419 19.5404 74.9419 18.7101V11.5083Z" />
<path d="M90.0712 11.2375C91.9209 11.2375 93.4895 11.8964 94.777 13.214C96.0646 14.5136 96.7084 16.1832 96.7084 18.2228C96.7084 20.2263 96.0736 21.8869 94.8042 23.2045C93.5349 24.5221 91.9662 25.1809 90.0984 25.1809C88.5026 25.1809 87.1969 24.6936 86.1814 23.7189V24.9102H81.8292V5.95801H86.1814V12.6725C87.1788 11.7159 88.4754 11.2375 90.0712 11.2375ZM89.2008 21.4176C90.0349 21.4176 90.7422 21.1288 91.3225 20.5512C91.9028 19.9555 92.1929 19.1794 92.1929 18.2228C92.1929 17.2481 91.9028 16.472 91.3225 15.8944C90.7603 15.2987 90.0531 15.0009 89.2008 15.0009C88.3303 15.0009 87.6049 15.2987 87.0247 15.8944C86.4625 16.472 86.1814 17.2481 86.1814 18.2228C86.1814 19.1794 86.4625 19.9555 87.0247 20.5512C87.6049 21.1288 88.3303 21.4176 89.2008 21.4176Z" />
</svg>
