<svg width="43" height="45" viewBox="0 0 43 45" fill="none" xmlns="http://www.w3.org/2000/svg">
<rect width="43" height="45" rx="8" fill="#FFDA85"/>
<path d="M23.3952 20.3327C23.3952 20.7814 23.759 21.1452 24.2077 21.1452H24.9545L22.7742 23.3255C22.6684 23.4312 22.4969 23.4312 22.3912 23.3255L20.6732 21.6075C19.9329 20.8672 18.7325 20.8672 17.9921 21.6075L15.5082 24.0915C15.1909 24.4088 15.1909 24.9232 15.5082 25.2405C15.8255 25.5578 16.3399 25.5578 16.6572 25.2405L19.1412 22.7566C19.2469 22.6508 19.4184 22.6508 19.5242 22.7566L21.2421 24.4745C21.9825 25.2149 23.1829 25.2149 23.9232 24.4745L26.1035 22.2942V23.041C26.1035 23.4897 26.4673 23.8535 26.916 23.8535C27.3647 23.8535 27.7285 23.4897 27.7285 23.041V20.3327C27.7285 19.884 27.3647 19.5202 26.916 19.5202H24.2077C23.759 19.5202 23.3952 19.884 23.3952 20.3327Z" fill="#343330"/>
<path fill-rule="evenodd" clip-rule="evenodd" d="M21.4372 10.8535C18.9364 10.8535 16.9766 10.8535 15.4475 11.0591C13.8824 11.2695 12.6474 11.7086 11.678 12.678C10.7086 13.6474 10.2695 14.8824 10.0591 16.4475C9.85349 17.9766 9.8535 19.9364 9.85352 22.4372V22.5615C9.8535 25.0623 9.85349 27.0221 10.0591 28.5512C10.2695 30.1163 10.7086 31.3513 11.678 32.3207C12.6474 33.2901 13.8824 33.7292 15.4475 33.9396C16.9766 34.1452 18.9364 34.1452 21.4372 34.1452H21.5615C24.0623 34.1452 26.0221 34.1452 27.5512 33.9396C29.1163 33.7292 30.3513 33.2901 31.3207 32.3207C32.2901 31.3513 32.7292 30.1163 32.9396 28.5512C33.1452 27.0221 33.1452 25.0623 33.1452 22.5615V22.4372C33.1452 19.9364 33.1452 17.9766 32.9396 16.4475C32.7292 14.8824 32.2901 13.6474 31.3207 12.678C30.3513 11.7086 29.1163 11.2695 27.5512 11.0591C26.0221 10.8535 24.0623 10.8535 21.5615 10.8535H21.4372ZM12.827 13.827C13.4442 13.2099 14.2791 12.8558 15.6641 12.6696C17.0724 12.4802 18.9229 12.4785 21.4993 12.4785C24.0758 12.4785 25.9263 12.4802 27.3346 12.6696C28.7196 12.8558 29.5545 13.2099 30.1717 13.827C30.7888 14.4442 31.1429 15.2791 31.3291 16.6641C31.5185 18.0724 31.5202 19.9229 31.5202 22.4993C31.5202 25.0758 31.5185 26.9263 31.3291 28.3346C31.1429 29.7196 30.7888 30.5545 30.1717 31.1717C29.5545 31.7888 28.7196 32.1429 27.3346 32.3291C25.9263 32.5185 24.0758 32.5202 21.4993 32.5202C18.9229 32.5202 17.0724 32.5185 15.6641 32.3291C14.2791 32.1429 13.4442 31.7888 12.827 31.1717C12.2099 30.5545 11.8558 29.7196 11.6696 28.3346C11.4802 26.9263 11.4785 25.0758 11.4785 22.4993C11.4785 19.9229 11.4802 18.0724 11.6696 16.6641C11.8558 15.2791 12.2099 14.4442 12.827 13.827Z" fill="#343330"/>
</svg>
